<svg width="14" height="15" viewBox="0 0 14 15" fill="none" xmlns="http://www.w3.org/2000/svg">
<path d="M3.41406 8.65708L7.36406 12.6071C7.54171 12.7965 7.63869 13.0477 7.63448 13.3074C7.63026 13.567 7.52518 13.8149 7.34146 13.9985C7.15775 14.1821 6.90982 14.287 6.65014 14.291C6.39045 14.295 6.13938 14.1979 5.95006 14.0201L0.293058 8.36408C0.199873 8.27143 0.125924 8.16127 0.0754624 8.03993C0.0250011 7.9186 -0.000976563 7.78849 -0.000976562 7.65708C-0.000976562 7.52567 0.0250011 7.39556 0.0754624 7.27423C0.125924 7.15289 0.199873 7.04273 0.293058 6.95008L5.95006 1.29308C6.0423 1.19757 6.15265 1.12139 6.27465 1.06898C6.39666 1.01657 6.52788 0.988985 6.66066 0.987831C6.79344 0.986677 6.92512 1.01198 7.04801 1.06226C7.17091 1.11254 7.28256 1.18679 7.37645 1.28069C7.47035 1.37458 7.5446 1.48623 7.59488 1.60913C7.64516 1.73202 7.67046 1.8637 7.66931 1.99648C7.66815 2.12926 7.64057 2.26048 7.58816 2.38249C7.53575 2.50449 7.45957 2.61483 7.36406 2.70708L3.41406 6.65708H13.0001C13.2653 6.65708 13.5196 6.76244 13.7072 6.94997C13.8947 7.13751 14.0001 7.39186 14.0001 7.65708C14.0001 7.9223 13.8947 8.17665 13.7072 8.36419C13.5196 8.55172 13.2653 8.65708 13.0001 8.65708H3.41406Z" fill="white"/>
</svg>
