<svg width="20" height="20" viewBox="0 0 20 20" fill="none" xmlns="http://www.w3.org/2000/svg">
<path d="M12.738 5.97205L3.7 15.0101L3.109 17.0261L5.084 16.4551L14.152 7.38705L12.738 5.97205ZM14.28 4.43005L15.694 5.84405L17.012 4.52605C17.1057 4.43229 17.1584 4.30514 17.1584 4.17255C17.1584 4.03997 17.1057 3.91282 17.012 3.81905L16.304 3.11205C16.2102 3.01832 16.0831 2.96566 15.9505 2.96566C15.8179 2.96566 15.6908 3.01832 15.597 3.11205L14.281 4.43005H14.28ZM17.719 1.69805L18.426 2.40505C18.8947 2.87387 19.158 3.50964 19.158 4.17255C19.158 4.83546 18.8947 5.47123 18.426 5.94005L6.134 18.2331L1.914 19.4531C1.74199 19.5026 1.55982 19.5052 1.38651 19.4603C1.2132 19.4155 1.0551 19.3249 0.928716 19.1982C0.802335 19.0714 0.712307 18.913 0.668031 18.7395C0.623755 18.5661 0.626854 18.3839 0.677004 18.2121L1.925 13.9571L14.185 1.69705C14.6538 1.22838 15.2896 0.965088 15.9525 0.965088C16.6154 0.965088 17.2512 1.22838 17.72 1.69705L17.719 1.69805Z" fill="#343434"/>
</svg>
