<svg width="24" height="25" viewBox="0 0 24 25" fill="none" xmlns="http://www.w3.org/2000/svg">
<path d="M12.071 13.8139L17.021 8.86388C17.1132 8.76837 17.2236 8.69219 17.3456 8.63978C17.4676 8.58737 17.5988 8.55979 17.7316 8.55863C17.8644 8.55748 17.996 8.58278 18.1189 8.63306C18.2418 8.68334 18.3535 8.75759 18.4474 8.85149C18.5413 8.94538 18.6155 9.05703 18.6658 9.17993C18.7161 9.30282 18.7414 9.4345 18.7402 9.56728C18.7391 9.70006 18.7115 9.83128 18.6591 9.95329C18.6067 10.0753 18.5305 10.1856 18.435 10.2779L12.778 15.9349C12.5905 16.1224 12.3362 16.2277 12.071 16.2277C11.8058 16.2277 11.5515 16.1224 11.364 15.9349L5.70699 10.2779C5.61148 10.1856 5.5353 10.0753 5.48289 9.95329C5.43048 9.83128 5.40289 9.70006 5.40174 9.56728C5.40059 9.4345 5.42589 9.30282 5.47617 9.17993C5.52645 9.05703 5.6007 8.94538 5.6946 8.85149C5.78849 8.75759 5.90014 8.68334 6.02304 8.63306C6.14593 8.58278 6.27761 8.55748 6.41039 8.55863C6.54317 8.55979 6.67439 8.58737 6.7964 8.63978C6.9184 8.69219 7.02874 8.76837 7.12099 8.86388L12.071 13.8139Z" fill="#343434"/>
</svg>
